P3
30 15
255
255 255 255 255 255 255 255 255 255 255 255 255 255 255 255 255 255 255 
255 255 255 255 255 255 245 244 246 255 255 255 255 255 255 255 255 255 
255 255 255 249 250 250 225 223 226 226 228 231 220 224 235 191 199 220 
171 175 194 198 203 221 221 224 239 219 222 241 238 240 253 255 255 255 
255 255 255 255 255 255 255 255 255 255 255 255 255 255 255 255 255 255 
151 160 169 149 156 151 177 177 150 185 187 169 161 163 155 141 140 125 
176 177 162 157 158 145 109 121 117 55 70 97 150 161 173 255 255 255 
216 217 219 66 82 98 1 16 60 4 31 72 25 50 62 0 23 43 0 0 33 14 38 53 42 57 65 
41 51 52 78 85 65 120 117 81 137 138 109 104 115 107 99 107 91 125 126 101 
166 168 155 201 199 179 0 3 42 0 25 15 21 39 20 31 50 34 30 44 0 12 29 0 
32 42 0 11 30 31 32 51 51 25 39 17 4 32 59 75 94 121 0 24 60 0 18 51 0 23 63 
9 39 44 28 52 10 36 59 3 47 70 10 25 51 0 19 42 0 41 56 0 15 40 0 0 28 0 
7 31 0 36 52 0 42 55 4 16 34 14 19 38 9 11 31 32 1 33 71 3 35 74 0 26 77 
0 26 84 31 58 42 108 104 37 81 94 37 30 59 15 41 60 7 46 64 18 0 29 57 0 1 51 
0 26 64 0 29 76 12 46 50 20 47 18 35 60 13 49 73 18 38 62 18 114 122 74 
152 142 85 108 109 58 122 123 75 147 133 92 124 118 71 64 87 9 19 53 28 
0 31 76 0 32 73 0 24 75 5 35 71 3 33 71 5 35 71 0 26 72 10 32 71 163 136 97 
168 145 86 66 90 15 34 65 25 0 29 79 2 33 76 6 36 70 4 38 73 0 10 63 88 81 76 
145 141 104 52 71 80 65 81 85 141 130 96 210 184 147 255 221 158 177 161 110 
223 192 145 183 156 109 128 131 57 28 64 45 7 38 61 5 34 72 1 32 75 5 35 70 
5 35 71 6 36 71 6 36 71 5 36 70 0 24 73 33 52 80 119 113 69 44 69 44 3 40 73 
0 25 87 2 32 74 6 35 70 0 11 59 62 72 88 255 240 180 255 255 200 255 255 208 
235 212 181 240 211 168 206 192 156 118 116 109 150 144 84 98 106 57 60 88 9 
31 66 18 8 38 75 2 30 78 4 34 72 5 35 70 5 35 71 5 35 71 5 35 71 5 35 71 
5 35 71 5 37 71 0 23 70 0 28 62 20 49 60 27 58 66 42 66 55 5 34 74 0 25 80 
0 13 68 52 77 77 167 172 89 187 177 105 180 182 103 148 148 73 169 151 94 
87 93 108 0 0 52 53 65 69 12 42 65 48 76 50 17 46 66 5 35 69 0 29 77 2 33 74 
6 36 71 6 36 71 5 35 71 5 35 71 5 35 71 5 35 71 5 35 71 5 36 70 0 29 75 
0 26 89 48 71 37 59 81 0 35 62 12 27 53 57 9 41 78 0 24 67 0 21 50 6 40 41 
12 43 0 39 65 0 83 82 61 0 20 73 2 30 70 0 28 70 0 29 72 12 46 61 25 58 46 
0 35 58 0 35 59 11 41 64 5 35 72 5 35 72 6 36 72 5 35 71 6 36 72 6 36 72 
5 35 71 5 35 71 5 35 71 2 30 80 38 56 58 49 66 8 71 82 3 98 97 36 12 39 72 
1 30 74 0 23 76 0 29 79 71 73 42 97 87 22 34 56 48 0 27 72 3 35 73 3 34 71 
2 32 73 8 39 69 6 37 66 29 53 71 51 75 51 9 43 61 2 31 74 6 36 71 5 36 72 
5 35 71 6 36 72 6 36 72 5 35 71 5 35 71 6 35 71 0 31 68 9 35 89 97 92 62 
99 99 23 34 53 63 0 28 74 5 35 71 1 32 70 4 28 73 145 120 92 120 105 63 
23 42 56 14 41 69 1 32 73 5 35 71 6 36 70 0 22 73 51 55 72 174 122 67 
210 151 88 84 83 71 0 25 67 3 33 73 5 35 71 5 35 71 4 35 71 4 35 71 5 35 71 
5 35 71 5 35 71 0 31 71 11 39 74 99 97 62 39 60 52 0 19 73 0 29 68 2 33 69 
4 34 70 0 26 70 38 54 74 39 55 74 0 24 74 2 34 71 5 36 70 2 32 69 3 34 70 
2 29 73 33 51 65 54 55 66 94 87 75 72 76 56 2 28 70 10 40 67 0 23 61 0 22 61 
0 9 50 0 9 50 0 23 62 0 26 63 0 24 62 0 11 58 29 53 70 48 66 68 0 3 60 0 15 56 
0 18 54 0 16 55 0 27 65 0 13 51 0 15 62 0 5 55 0 16 54 0 16 57 0 20 60 0 20 59 
0 6 48 0 9 48 0 14 59 0 6 60 0 9 57 0 16 60 0 20 59 0 28 56 12 36 73 12 37 73 
64 85 112 65 87 115 18 44 80 11 39 77 14 44 81 20 47 84 29 54 87 44 66 95 
70 82 110 123 133 151 161 168 180 123 136 154 60 82 109 82 101 126 29 55 88 
49 73 103 57 80 109 58 79 107 49 72 101 85 103 126 111 126 146 104 122 144 
33 60 93 31 57 91 18 46 81 33 58 92 40 64 95 13 39 78 225 233 235 223 231 232 
251 252 249 244 243 240 192 196 200 179 184 189 182 185 186 195 194 193 
171 177 180 154 169 163 189 202 200 237 241 241 224 229 229 210 211 209 
189 188 183 225 221 211 182 182 180 204 198 190 205 204 201 211 202 191 
163 162 156 196 194 186 228 218 203 202 201 197 202 202 199 209 202 192 
174 173 170 178 178 178 187 189 189 216 225 226 201 219 210 195 220 211 
159 171 170 161 161 162 177 181 180 185 185 177 194 186 174 192 184 173 
162 168 162 141 161 156 148 165 163 162 173 171 147 155 155 163 162 158 
196 188 178 177 173 165 184 180 171 181 173 160 178 169 155 174 167 155 
168 163 154 171 166 159 168 163 156 175 168 157 197 189 175 187 181 171 
191 186 175 191 183 174 167 171 168 190 208 199 
