P3
512 1
255
3 3 3 3 3 3 3 3 3 2 2 2 3 3 3 3 3 3 3 3 3 4 4 4 5 5 5 7 7 7 8 8 8 11 11 11 
15 15 15 20 20 20 24 24 24 28 28 28 35 35 35 41 41 41 47 47 47 54 54 54 
60 60 60 66 66 66 73 73 73 79 79 79 86 86 86 91 91 91 97 97 97 102 102 102 
107 107 107 112 112 112 116 116 116 120 120 120 124 124 124 127 127 127 
129 129 129 130 130 130 132 132 132 132 132 132 133 133 133 132 132 132 
132 132 132 131 131 131 130 130 130 128 128 128 127 127 127 126 126 126 
124 124 124 123 123 123 121 121 121 120 120 120 118 118 118 117 117 117 
115 115 115 114 114 114 114 114 114 115 115 115 116 116 116 117 117 117 
119 119 119 120 120 120 122 122 122 123 123 123 126 126 126 128 128 128 
130 130 130 132 132 132 134 134 134 136 136 136 138 138 138 140 140 140 
141 141 141 142 142 142 144 144 144 145 145 145 146 146 146 146 146 146 
147 147 147 147 147 147 147 147 147 147 147 147 147 147 147 147 147 147 
147 147 147 147 147 147 146 146 146 146 146 146 146 146 146 146 146 146 
146 146 146 145 145 145 145 145 145 144 144 144 144 144 144 144 144 144 
143 143 143 143 143 143 143 143 143 142 142 142 142 142 142 142 142 142 
140 140 140 141 141 141 140 140 140 140 140 140 139 139 139 138 138 138 
138 138 138 137 137 137 137 137 137 137 137 137 135 135 135 135 135 135 
135 135 135 134 134 134 133 133 133 133 133 133 126 126 126 118 118 118 
114 114 114 114 114 114 114 114 114 114 114 114 114 114 114 113 113 113 
113 113 113 113 113 113 113 113 113 113 113 113 112 112 112 112 112 112 
112 112 112 111 111 111 111 111 111 110 110 110 109 109 109 107 107 107 
106 106 106 105 105 105 103 103 103 101 101 101 99 99 99 96 96 96 92 92 92 
90 90 90 86 86 86 82 82 82 78 78 78 74 74 74 68 68 68 64 64 64 57 57 57 
53 53 53 47 47 47 41 41 41 36 36 36 31 31 31 26 26 26 21 21 21 17 17 17 
13 13 13 10 10 10 7 7 7 3 3 3 0 0 0 0 0 0 0 0 0 0 0 0 0 0 0 0 0 0 0 0 0 0 0 0 
0 0 0 0 0 0 0 0 0 0 0 0 0 0 0 0 0 0 0 0 0 0 0 0 0 0 0 0 0 0 0 0 0 0 0 0 0 0 0 
0 0 0 0 0 0 0 0 0 0 0 0 0 0 0 0 0 0 0 0 0 0 0 0 0 0 0 0 0 0 0 0 0 0 0 0 0 0 0 
0 0 0 0 0 0 0 0 0 0 0 0 0 0 0 0 0 0 0 0 0 0 0 0 0 0 0 0 0 0 0 0 0 0 0 0 0 0 0 
0 0 0 0 0 0 0 0 0 0 0 0 0 0 0 0 0 0 0 0 0 0 0 0 0 0 0 0 0 0 0 0 0 0 0 0 0 0 0 
0 0 0 0 0 0 0 0 0 0 0 0 0 0 0 0 0 0 0 0 0 0 0 0 0 0 0 0 0 0 0 0 0 0 0 0 0 0 0 
0 0 0 0 0 0 0 0 0 0 0 0 0 0 0 0 0 0 0 0 0 0 0 0 0 0 0 0 0 0 0 0 0 0 0 0 0 0 0 
0 0 0 0 0 0 0 0 0 0 0 0 0 0 0 0 0 0 0 0 0 0 0 0 0 0 0 0 0 0 0 0 0 0 0 0 6 6 6 
18 18 18 32 32 32 49 49 49 66 66 66 86 86 86 105 105 105 126 126 126 
144 144 144 163 163 163 179 179 179 193 193 193 206 206 206 214 214 214 
219 219 219 218 218 218 214 214 214 208 208 208 200 200 200 191 191 191 
178 178 178 164 164 164 150 150 150 136 136 136 121 121 121 108 108 108 
97 97 97 88 88 88 86 86 86 85 85 85 84 84 84 83 83 83 82 82 82 81 81 81 
79 79 79 78 78 78 76 76 76 75 75 75 73 73 73 71 71 71 70 70 70 68 68 68 
66 66 66 65 65 65 63 63 63 61 61 61 59 59 59 57 57 57 55 55 55 54 54 54 
51 51 51 50 50 50 48 48 48 46 46 46 44 44 44 42 42 42 40 40 40 38 38 38 
36 36 36 35 35 35 33 33 33 31 31 31 29 29 29 27 27 27 25 25 25 23 23 23 
22 22 22 20 20 20 19 19 19 17 17 17 16 16 16 14 14 14 13 13 13 11 11 11 
10 10 10 9 9 9 7 7 7 7 7 7 5 5 5 4 4 4 4 4 4 3 3 3 2 2 2 1 1 1 1 1 1 0 0 0 
0 0 0 0 0 0 0 0 0 0 0 0 0 0 0 0 0 0 0 0 0 0 0 0 2 2 2 3 3 3 4 4 4 6 6 6 7 7 7 
8 8 8 11 11 11 13 13 13 15 15 15 17 17 17 20 20 20 23 23 23 25 25 25 28 28 28 
31 31 31 35 35 35 38 38 38 40 40 40 44 44 44 47 47 47 51 51 51 55 55 55 
58 58 58 61 61 61 65 65 65 69 69 69 72 72 72 76 76 76 80 80 80 84 84 84 
87 87 87 91 91 91 94 94 94 98 98 98 102 102 102 105 105 105 108 108 108 
112 112 112 115 115 115 119 119 119 122 122 122 125 125 125 128 128 128 
131 131 131 134 134 134 137 137 137 139 139 139 142 142 142 144 144 144 
146 146 146 148 148 148 150 150 150 152 152 152 153 153 153 155 155 155 
156 156 156 157 157 157 158 158 158 157 157 157 157 157 157 157 157 157 
157 157 157 157 157 157 156 156 156 156 156 156 156 156 156 154 154 154 
152 152 152 151 151 151 148 148 148 146 146 146 143 143 143 141 141 141 
138 138 138 136 136 136 129 129 129 124 124 124 119 119 119 113 113 113 
109 109 109 106 106 106 103 103 103 102 102 102 101 101 101 102 102 102 
103 103 103 106 106 106 109 109 109 112 112 112 116 116 116 120 120 120 
124 124 124 129 129 129 134 134 134 138 138 138 143 143 143 147 147 147 
151 151 151 155 155 155 158 158 158 160 160 160 161 161 161 162 162 162 
162 162 162 162 162 162 162 162 162 162 162 162 160 160 160 159 159 159 
157 157 157 155 155 155 153 153 153 151 151 151 149 149 149 146 146 146 
143 143 143 141 141 141 137 137 137 134 134 134 131 131 131 127 127 127 
124 124 124 121 121 121 116 116 116 113 113 113 110 110 110 106 106 106 
101 101 101 97 97 97 93 93 93 89 89 89 85 85 85 82 82 82 77 77 77 73 73 73 
69 69 69 65 65 65 61 61 61 57 57 57 53 53 53 49 49 49 45 45 45 42 42 42 
38 38 38 35 35 35 31 31 31 28 28 28 24 24 24 21 21 21 18 18 18 15 15 15 
13 13 13 10 10 10 8 8 8 5 5 5 4 4 4 1 1 1 
