P3
512 1
255
255 255 255 255 255 255 255 255 255 254 254 254 254 254 254 254 254 254 
254 254 254 254 254 254 253 253 253 253 253 253 252 252 252 251 251 251 
249 249 249 246 246 246 240 240 240 230 230 230 196 196 196 190 190 190 
174 174 174 166 166 166 156 156 156 139 139 139 130 130 130 128 128 128 
127 127 127 127 127 127 127 127 127 127 127 127 127 127 127 127 127 127 
127 127 127 127 127 127 127 127 127 127 127 127 127 127 127 127 127 127 
127 127 127 127 127 127 127 127 127 127 127 127 127 127 127 127 127 127 
127 127 127 127 127 127 127 127 127 127 127 127 126 126 126 126 126 126 
126 126 126 126 126 126 126 126 126 126 126 126 126 126 126 126 126 126 
126 126 126 126 126 126 126 126 126 126 126 126 126 126 126 126 126 126 
126 126 126 126 126 126 126 126 126 125 125 125 125 125 125 125 125 125 
125 125 125 125 125 125 125 125 125 125 125 125 125 125 125 125 125 125 
125 125 125 125 125 125 125 125 125 125 125 125 124 124 124 124 124 124 
124 124 124 124 124 124 124 124 124 125 125 125 125 125 125 125 125 125 
125 125 125 125 125 125 125 125 125 125 125 125 125 125 125 125 125 125 
125 125 125 125 125 125 126 126 126 126 126 126 126 126 126 126 126 126 
126 126 126 126 126 126 126 126 126 126 126 126 126 126 126 126 126 126 
126 126 126 126 126 126 126 126 126 126 126 126 127 127 127 127 127 127 
127 127 127 127 127 127 127 127 127 127 127 127 127 127 127 127 127 127 
127 127 127 127 127 127 127 127 127 127 127 127 127 127 127 127 127 127 
127 127 127 127 127 127 127 127 127 127 127 127 127 127 127 127 127 127 
127 127 127 127 127 127 127 127 127 127 127 127 127 127 127 127 127 127 
127 127 127 127 127 127 127 127 127 127 127 127 127 127 127 127 127 127 
127 127 127 127 127 127 127 127 127 127 127 127 127 127 127 127 127 127 
127 127 127 127 127 127 127 127 127 127 127 127 127 127 127 127 127 127 
127 127 127 127 127 127 127 127 127 127 127 127 127 127 127 127 127 127 
127 127 127 127 127 127 127 127 127 127 127 127 127 127 127 127 127 127 
126 126 126 126 126 126 126 126 126 126 126 126 126 126 126 126 126 126 
126 126 126 126 126 126 126 126 126 126 126 126 126 126 126 126 126 126 
126 126 126 126 126 126 126 126 126 126 126 126 126 126 126 126 126 126 
126 126 126 126 126 126 126 126 126 126 126 126 126 126 126 126 126 126 
126 126 126 126 126 126 126 126 126 126 126 126 126 126 126 125 125 125 
125 125 125 125 125 125 125 125 125 125 125 125 125 125 125 125 125 125 
125 125 125 125 125 125 125 125 125 124 124 124 124 124 124 124 124 124 
124 124 124 124 124 124 124 124 124 123 123 123 123 123 123 123 123 123 
123 123 123 123 123 123 122 122 122 122 122 122 122 122 122 121 121 121 
121 121 121 121 121 121 121 121 121 120 120 120 120 120 120 120 120 120 
119 119 119 119 119 119 118 118 118 118 118 118 118 118 118 117 117 117 
117 117 117 117 117 117 116 116 116 116 116 116 116 116 116 116 116 116 
115 115 115 115 115 115 115 115 115 115 115 115 116 116 116 117 117 117 
118 118 118 119 119 119 119 119 119 120 120 120 121 121 121 121 121 121 
122 122 122 122 122 122 122 122 122 123 123 123 123 123 123 124 124 124 
124 124 124 124 124 124 125 125 125 125 125 125 125 125 125 125 125 125 
125 125 125 125 125 125 126 126 126 126 126 126 126 126 126 126 126 126 
126 126 126 126 126 126 126 126 126 126 126 126 126 126 126 126 126 126 
127 127 127 127 127 127 127 127 127 127 127 127 127 127 127 127 127 127 
127 127 127 127 127 127 127 127 127 127 127 127 127 127 127 127 127 127 
127 127 127 127 127 127 127 127 127 127 127 127 127 127 127 127 127 127 
127 127 127 127 127 127 127 127 127 127 127 127 127 127 127 127 127 127 
127 127 127 127 127 127 127 127 127 127 127 127 127 127 127 127 127 127 
127 127 127 127 127 127 127 127 127 127 127 127 127 127 127 127 127 127 
127 127 127 127 127 127 127 127 127 127 127 127 127 127 127 127 127 127 
127 127 127 127 127 127 127 127 127 127 127 127 127 127 127 127 127 127 
127 127 127 127 127 127 127 127 127 127 127 127 127 127 127 127 127 127 
127 127 127 127 127 127 127 127 127 127 127 127 127 127 127 127 127 127 
127 127 127 127 127 127 127 127 127 127 127 127 127 127 127 127 127 127 
127 127 127 127 127 127 127 127 127 127 127 127 127 127 127 127 127 127 
127 127 127 127 127 127 127 127 127 127 127 127 127 127 127 127 127 127 
127 127 127 127 127 127 127 127 127 127 127 127 127 127 127 127 127 127 
127 127 127 127 127 127 127 127 127 127 127 127 127 127 127 127 127 127 
127 127 127 127 127 127 127 127 127 127 127 127 127 127 127 127 127 127 
127 127 127 127 127 127 127 127 127 127 127 127 127 127 127 127 127 127 
127 127 127 127 127 127 136 136 136 137 137 137 147 147 147 165 165 165 
172 172 172 180 180 180 182 182 182 197 197 197 204 204 204 210 210 210 
215 215 215 224 224 224 223 223 223 230 230 230 232 232 232 234 234 234 
234 234 234 237 237 237 238 238 238 239 239 239 240 240 240 241 241 241 
242 242 242 243 243 243 243 243 243 244 244 244 244 244 244 244 244 244 
245 245 245 245 245 245 246 246 246 246 246 246 247 247 247 247 247 247 
247 247 247 248 248 248 248 248 248 248 248 248 248 248 248 249 249 249 
249 249 249 249 249 249 249 249 249 250 250 250 250 250 250 250 250 250 
250 250 250 250 250 250 251 251 251 251 251 251 251 251 251 251 251 251 
251 251 251 251 251 251 251 251 251 252 252 252 252 252 252 252 252 252 
252 252 252 252 252 252 252 252 252 252 252 252 252 252 252 252 252 252 
252 252 252 252 252 252 253 253 253 253 253 253 253 253 253 253 253 253 
253 253 253 253 253 253 253 253 253 253 253 253 253 253 253 253 253 253 
253 253 253 253 253 253 253 253 253 253 253 253 253 253 253 253 253 253 
253 253 253 253 253 253 254 254 254 254 254 254 254 254 254 254 254 254 
254 254 254 254 254 254 254 254 254 254 254 254 254 254 254 254 254 254 
254 254 254 254 254 254 254 254 254 254 254 254 254 254 254 254 254 254 
254 254 254 254 254 254 255 255 255 255 255 255 255 255 255 255 255 255 
255 255 255 255 255 255 255 255 255 255 255 255 255 255 255 255 255 255 
255 255 255 255 255 255 255 255 255 255 255 255 255 255 255 255 255 255 
255 255 255 255 255 255 255 255 255 255 255 255 255 255 255 255 255 255 
255 255 255 255 255 255 255 255 255 255 255 255 255 255 255 255 255 255 
255 255 255 255 255 255 255 255 255 255 255 255 255 255 255 255 255 255 
255 255 255 255 255 255 
